<svg data-v-6805eed4="" version="1.0" xmlns="http://www.w3.org/2000/svg" xmlns:xlink="http://www.w3.org/1999/xlink" width="100%" height="100%" viewBox="0 0 340.000000 250.000000" preserveAspectRatio="xMidYMid meet" color-interpolation-filters="sRGB" style="margin: auto;"> <rect data-v-6805eed4="" x="0" y="0" width="100%" height="100%" fill="#ffffff" fill-opacity="0" class="background"></rect> <rect data-v-6805eed4="" x="0" y="0" width="100%" height="100%" fill="url(#watermark)" fill-opacity="1" class="watermarklayer"></rect> <g data-v-6805eed4="" fill="#333333" class="icon-text-wrapper icon-svg-group iconsvg" transform="translate(100.94000244140625,74.00500106811523)"><g fill="#0bbf64" class="iconsvg-imagesvg icon_container" transform="matrix(1,0,0,1,31.05999755859375,0)" opacity="1"><rect fill="#333333" fill-opacity="0" stroke-width="2" x="0" y="0" width="76" height="76" class="image-rect"></rect> <svg viewBox="0 0 60 60" x="0" y="0" width="76" height="76" class="image-svg-svg bn" style="overflow: visible;"><g hollow-target="iconBnFill" mask="url(#b3e10cbe-f3f6-4fc7-a014-d983cbfdb12c)"><g><svg fill="#000000" xmlns="http://www.w3.org/2000/svg" xmlns:xlink="http://www.w3.org/1999/xlink" xml:space="preserve" version="1.1" style="shape-rendering: geometricprecision; text-rendering: geometricprecision; overflow: visible;" viewBox="0 0 300 300" x="0" y="0" fill-rule="evenodd" clip-rule="evenodd" width="60" height="60" filtersec="colorsf6843504654" filter="url(#VWl3JmPvRkpSCK3z_v6g1)"><g transform="scale(1, 1) skewX(0)"><defs><filter id="VWl3JmPvRkpSCK3z_v6g1"><feColorMatrix type="matrix" values="0 0 0 0 0.04296875  0 0 0 0 0.74609375  0 0 0 0 0.390625  0 0 0 1 0"></feColorMatrix></filter></defs><g><circle class="fil0" cx="150" cy="150" r="150"></circle></g></g></svg></g> <g filter="url(#colors3933549318)"><svg xmlns="http://www.w3.org/2000/svg" viewBox="0 0 85.4 57.2" width="59" height="59" x="0.5" y="0.5" class="image-svg-icon"><path d="M1.4 55.7l40.5-40.5c3.6-3.6 8.6-5.8 14.1-5.8 11 0 20 8.9 20 20 0 11-8.9 20-20 20M29.4 7.8c-11 0-20 8.9-20 20v-.4c0 11 8.9 20.3 20 20.3h.6c5.5 0 9.9-2.2 13.5-5.9L84 1.4" fill="none" stroke="#333" stroke-width="4" stroke-miterlimit="10"></path></svg></g></g><mask id="b3e10cbe-f3f6-4fc7-a014-d983cbfdb12c"><g fill="white"><svg xmlns="http://www.w3.org/2000/svg" xmlns:xlink="http://www.w3.org/1999/xlink" xml:space="preserve" version="1.1" style="shape-rendering: geometricprecision; text-rendering: geometricprecision; overflow: visible;" viewBox="0 0 300 300" x="0" y="0" fill-rule="evenodd" clip-rule="evenodd" width="60" height="60" filtersec="colorsf6843504654"><g transform="scale(1, 1) skewX(0)"><defs></defs><g><circle cx="150" cy="150" r="150"></circle></g></g></svg></g> <g fill="black"><svg xmlns="http://www.w3.org/2000/svg" viewBox="0 0 85.4 57.2" width="59" height="59" x="0.5" y="0.5" class="image-svg-icon"><path d="M1.4 55.7l40.5-40.5c3.6-3.6 8.6-5.8 14.1-5.8 11 0 20 8.9 20 20 0 11-8.9 20-20 20M29.4 7.8c-11 0-20 8.9-20 20v-.4c0 11 8.9 20.3 20 20.3h.6c5.5 0 9.9-2.2 13.5-5.9L84 1.4" fill="none" stroke="black" stroke-width="4" stroke-miterlimit="10"></path></svg></g></mask></svg> <defs><filter id="colors3933549318"><feColorMatrix type="matrix" values="0 0 0 0 0.203125  0 0 0 0 0.234375  0 0 0 0 0.2421875  0 0 0 1 0" class="icon-fecolormatrix"></feColorMatrix></filter> <filter id="colorsf6843504654"><feColorMatrix type="matrix" values="0 0 0 0 0.99609375  0 0 0 0 0.99609375  0 0 0 0 0.99609375  0 0 0 1 0" class="icon-fecolormatrix"></feColorMatrix></filter> <filter id="colorsb7333152816"><feColorMatrix type="matrix" values="0 0 0 0 0  0 0 0 0 0  0 0 0 0 0  0 0 0 1 0" class="icon-fecolormatrix"></feColorMatrix></filter></defs></g> <g transform="translate(0,86)"><g data-gra="path-name" fill-rule="" class="tp-name iconsvg-namesvg" opacity="1" transform="matrix(1,0,0,1,0,0)"><g transform="scale(1)"><g><path d="M1.98-13.6Q1.76-13.6 1.62-13.74 1.47-13.88 1.47-14.1L1.47-14.1 1.47-15.25Q1.47-15.47 1.62-15.62 1.76-15.77 1.98-15.77L1.98-15.77 3.28-15.77Q3.5-15.77 3.65-15.62 3.81-15.47 3.81-15.25L3.81-15.25 3.81-14.1Q3.81-13.88 3.65-13.74 3.5-13.6 3.28-13.6L3.28-13.6 1.98-13.6ZM2.16 0Q1.94 0 1.79-0.14 1.65-0.29 1.65-0.51L1.65-0.51 1.65-10.93Q1.65-11.15 1.79-11.3 1.94-11.44 2.16-11.44L2.16-11.44 3.12-11.44Q3.34-11.44 3.49-11.3 3.63-11.15 3.63-10.93L3.63-10.93 3.63-0.51Q3.63-0.29 3.49-0.14 3.34 0 3.12 0L3.12 0 2.16 0ZM10.85 0.22Q9.33 0.22 8.28-0.27 7.24-0.77 6.73-1.41 6.23-2.05 6.23-2.46L6.23-2.46Q6.23-2.68 6.38-2.8 6.53-2.93 6.71-2.93L6.71-2.93 7.63-2.93Q7.77-2.93 7.84-2.88 7.92-2.84 8.05-2.68L8.05-2.68Q8.56-2.07 9.18-1.72 9.81-1.36 10.87-1.36L10.87-1.36Q12.06-1.36 12.77-1.8 13.49-2.24 13.49-3.08L13.49-3.08Q13.49-3.63 13.18-3.96 12.87-4.29 12.15-4.55 11.44-4.82 10.03-5.13L10.03-5.13Q8.12-5.54 7.33-6.34 6.53-7.13 6.53-8.38L6.53-8.38Q6.53-9.2 7.02-9.96 7.5-10.71 8.46-11.19 9.42-11.66 10.74-11.66L10.74-11.66Q12.12-11.66 13.1-11.2 14.08-10.74 14.57-10.12 15.07-9.5 15.07-9.09L15.07-9.09Q15.07-8.89 14.93-8.76 14.78-8.62 14.59-8.62L14.59-8.62 13.75-8.62Q13.44-8.62 13.31-8.87L13.31-8.87Q12.94-9.28 12.68-9.51 12.43-9.75 11.95-9.91 11.46-10.08 10.74-10.08L10.74-10.08Q9.66-10.08 9.09-9.63 8.51-9.17 8.51-8.43L8.51-8.43Q8.51-7.96 8.76-7.64 9-7.33 9.68-7.05 10.36-6.78 11.7-6.49L11.7-6.49Q13.79-6.05 14.66-5.24 15.53-4.42 15.53-3.15L15.53-3.15Q15.53-2.2 14.99-1.43 14.45-0.66 13.39-0.22 12.32 0.22 10.85 0.22L10.85 0.22ZM18.63 0Q18.41 0 18.27-0.14 18.13-0.29 18.13-0.51L18.13-0.51 18.13-15.11Q18.13-15.36 18.27-15.49 18.41-15.62 18.63-15.62L18.63-15.62 19.6-15.62Q19.82-15.62 19.96-15.48 20.11-15.33 20.11-15.11L20.11-15.11 20.11-0.51Q20.11-0.29 19.96-0.14 19.82 0 19.6 0L19.6 0 18.63 0ZM26.58 0.22Q25.5 0.22 24.59-0.22 23.67-0.66 23.13-1.42 22.59-2.18 22.59-3.1L22.59-3.1Q22.59-4.55 23.78-5.48 24.97-6.4 27.02-6.71L27.02-6.71 30.32-7.17 30.32-7.81Q30.32-10.08 27.7-10.08L27.7-10.08Q26.69-10.08 26.07-9.67 25.45-9.26 25.17-8.71L25.17-8.71Q25.08-8.49 24.98-8.41 24.88-8.34 24.71-8.34L24.71-8.34 23.85-8.34Q23.65-8.34 23.51-8.48 23.36-8.62 23.36-8.82L23.36-8.82Q23.36-9.33 23.84-10 24.31-10.67 25.3-11.16 26.29-11.66 27.72-11.66L27.72-11.66Q30.18-11.66 31.25-10.52 32.32-9.37 32.32-7.66L32.32-7.66 32.32-0.51Q32.32-0.29 32.17-0.14 32.03 0 31.81 0L31.81 0 30.84 0Q30.62 0 30.49-0.14 30.36-0.29 30.36-0.51L30.36-0.51 30.36-1.47Q29.88-0.75 28.95-0.26 28.03 0.22 26.58 0.22L26.58 0.22ZM27.02-1.39Q28.47-1.39 29.39-2.33 30.32-3.28 30.32-5.08L30.32-5.08 30.32-5.7 27.74-5.32Q26.16-5.1 25.34-4.58 24.53-4.05 24.53-3.26L24.53-3.26Q24.53-2.35 25.27-1.87 26-1.39 27.02-1.39L27.02-1.39ZM36.01 0Q35.79 0 35.65-0.14 35.51-0.29 35.51-0.51L35.51-0.51 35.51-10.93Q35.51-11.15 35.65-11.3 35.79-11.44 36.01-11.44L36.01-11.44 36.94-11.44Q37.16-11.44 37.29-11.3 37.42-11.15 37.42-10.93L37.42-10.93 37.42-10.19Q38.61-11.66 40.63-11.66L40.63-11.66Q43.05-11.66 44.07-9.64L44.07-9.64Q44.59-10.56 45.57-11.11 46.55-11.66 47.76-11.66L47.76-11.66Q49.57-11.66 50.71-10.43 51.85-9.2 51.85-6.86L51.85-6.86 51.85-0.51Q51.85-0.29 51.71-0.14 51.57 0 51.35 0L51.35 0 50.4 0Q50.18 0 50.04-0.14 49.9-0.29 49.9-0.51L49.9-0.51 49.9-6.67Q49.9-8.43 49.17-9.18 48.44-9.94 47.26-9.94L47.26-9.94Q46.2-9.94 45.44-9.16 44.68-8.38 44.68-6.67L44.68-6.67 44.68-0.51Q44.68-0.29 44.54-0.14 44.4 0 44.18 0L44.18 0 43.21 0Q42.99 0 42.84-0.14 42.7-0.29 42.7-0.51L42.7-0.51 42.7-6.67Q42.7-8.4 41.94-9.17 41.18-9.94 40.06-9.94L40.06-9.94Q39.01-9.94 38.25-9.17 37.49-8.4 37.49-6.69L37.49-6.69 37.49-0.51Q37.49-0.29 37.34-0.14 37.2 0 36.98 0L36.98 0 36.01 0ZM55.37-13.6Q55.15-13.6 55.01-13.74 54.87-13.88 54.87-14.1L54.87-14.1 54.87-15.25Q54.87-15.47 55.01-15.62 55.15-15.77 55.37-15.77L55.37-15.77 56.67-15.77Q56.89-15.77 57.05-15.62 57.2-15.47 57.2-15.25L57.2-15.25 57.2-14.1Q57.2-13.88 57.05-13.74 56.89-13.6 56.67-13.6L56.67-13.6 55.37-13.6ZM55.55 0Q55.33 0 55.19-0.14 55.04-0.29 55.04-0.51L55.04-0.51 55.04-10.93Q55.04-11.15 55.19-11.3 55.33-11.44 55.55-11.44L55.55-11.44 56.52-11.44Q56.74-11.44 56.88-11.3 57.02-11.15 57.02-10.93L57.02-10.93 57.02-0.51Q57.02-0.29 56.88-0.14 56.74 0 56.52 0L56.52 0 55.55 0ZM64.9 0.22Q62.55 0.22 61.23-1.11 59.91-2.44 59.84-4.84L59.84-4.84 59.82-5.72 59.84-6.6Q59.91-9 61.23-10.33 62.55-11.66 64.9-11.66L64.9-11.66Q66.48-11.66 67.57-11.1 68.66-10.54 69.2-9.7 69.74-8.87 69.78-8.03L69.78-8.03Q69.81-7.83 69.64-7.68 69.48-7.52 69.28-7.52L69.28-7.52 68.31-7.52Q68.09-7.52 67.98-7.62 67.87-7.72 67.76-7.99L67.76-7.99Q67.36-9.06 66.67-9.51 65.98-9.97 64.92-9.97L64.92-9.97Q63.54-9.97 62.72-9.11 61.91-8.25 61.84-6.49L61.84-6.49 61.82-5.72 61.84-4.95Q61.91-3.19 62.72-2.33 63.54-1.47 64.92-1.47L64.92-1.47Q66-1.47 66.68-1.92 67.36-2.38 67.76-3.45L67.76-3.45Q67.87-3.72 67.98-3.82 68.09-3.92 68.31-3.92L68.31-3.92 69.28-3.92Q69.48-3.92 69.64-3.76 69.81-3.61 69.78-3.41L69.78-3.41Q69.74-2.6 69.2-1.76 68.66-0.92 67.57-0.35 66.48 0.22 64.9 0.22L64.9 0.22ZM78.36 0Q78.14 0 78-0.14 77.86-0.29 77.86-0.51L77.86-0.51 77.86-15.11Q77.86-15.36 78-15.49 78.14-15.62 78.36-15.62L78.36-15.62 79.38-15.62Q79.62-15.62 79.75-15.49 79.88-15.36 79.88-15.11L79.88-15.11 79.88-9.99Q80.52-10.8 81.39-11.23 82.26-11.66 83.53-11.66L83.53-11.66Q85.65-11.66 86.82-10.31 88-8.95 88-6.73L88-6.73 88-0.51Q88-0.29 87.86-0.14 87.71 0 87.49 0L87.49 0 86.46 0Q86.24 0 86.1-0.14 85.95-0.29 85.95-0.51L85.95-0.51 85.95-6.6Q85.95-8.18 85.18-9.06 84.41-9.94 82.96-9.94L82.96-9.94Q81.55-9.94 80.72-9.05 79.88-8.16 79.88-6.6L79.88-6.6 79.88-0.51Q79.88-0.29 79.74-0.14 79.6 0 79.38 0L79.38 0 78.36 0ZM95.72 0.22Q93.48 0.22 92.14-1.18 90.79-2.57 90.66-4.99L90.66-4.99 90.64-5.74 90.66-6.47Q90.79-8.84 92.14-10.25 93.48-11.66 95.72-11.66L95.72-11.66Q98.14-11.66 99.47-10.12 100.8-8.58 100.8-5.94L100.8-5.94 100.8-5.54Q100.8-5.32 100.66-5.18 100.52-5.04 100.3-5.04L100.3-5.04 92.66-5.04 92.66-4.84Q92.73-3.41 93.54-2.4 94.36-1.39 95.7-1.39L95.7-1.39Q96.73-1.39 97.38-1.79 98.03-2.2 98.36-2.64L98.36-2.64Q98.56-2.9 98.67-2.96 98.78-3.01 99.04-3.01L99.04-3.01 100.01-3.01Q100.21-3.01 100.35-2.9 100.5-2.79 100.5-2.62L100.5-2.62Q100.5-2.13 99.9-1.45 99.31-0.77 98.22-0.27 97.13 0.22 95.72 0.22L95.72 0.22ZM92.66-6.53L98.8-6.53 98.8-6.6Q98.8-8.14 97.97-9.11 97.13-10.08 95.72-10.08L95.72-10.08Q94.29-10.08 93.48-9.11 92.66-8.14 92.66-6.6L92.66-6.6 92.66-6.53ZM106.66 0.22Q105.58 0.22 104.66-0.22 103.75-0.66 103.21-1.42 102.67-2.18 102.67-3.1L102.67-3.1Q102.67-4.55 103.86-5.48 105.05-6.4 107.1-6.71L107.1-6.71 110.4-7.17 110.4-7.81Q110.4-10.08 107.78-10.08L107.78-10.08Q106.77-10.08 106.15-9.67 105.53-9.26 105.25-8.71L105.25-8.71Q105.16-8.49 105.06-8.41 104.96-8.34 104.79-8.34L104.79-8.34 103.93-8.34Q103.73-8.34 103.59-8.48 103.44-8.62 103.44-8.82L103.44-8.82Q103.44-9.33 103.92-10 104.39-10.67 105.38-11.16 106.37-11.66 107.8-11.66L107.8-11.66Q110.26-11.66 111.33-10.52 112.4-9.37 112.4-7.66L112.4-7.66 112.4-0.51Q112.4-0.29 112.25-0.14 112.11 0 111.89 0L111.89 0 110.92 0Q110.7 0 110.57-0.14 110.44-0.29 110.44-0.51L110.44-0.51 110.44-1.47Q109.96-0.75 109.03-0.26 108.11 0.22 106.66 0.22L106.66 0.22ZM107.1-1.39Q108.55-1.39 109.47-2.33 110.4-3.28 110.4-5.08L110.4-5.08 110.4-5.7 107.82-5.32Q106.24-5.1 105.42-4.58 104.61-4.05 104.61-3.26L104.61-3.26Q104.61-2.35 105.35-1.87 106.08-1.39 107.1-1.39L107.1-1.39ZM116.12 0Q115.9 0 115.75-0.14 115.61-0.29 115.61-0.51L115.61-0.51 115.61-15.11Q115.61-15.36 115.75-15.49 115.9-15.62 116.12-15.62L116.12-15.62 117.08-15.62Q117.3-15.62 117.45-15.48 117.59-15.33 117.59-15.11L117.59-15.11 117.59-0.51Q117.59-0.29 117.45-0.14 117.3 0 117.08 0L117.08 0 116.12 0ZM125.29 0Q121.88 0 121.88-3.85L121.88-3.85 121.88-9.75 120.14-9.75Q119.92-9.75 119.79-9.88 119.66-10.01 119.66-10.23L119.66-10.23 119.66-10.93Q119.66-11.15 119.79-11.3 119.92-11.44 120.14-11.44L120.14-11.44 121.88-11.44 121.88-15.11Q121.88-15.33 122.01-15.48 122.14-15.62 122.36-15.62L122.36-15.62 123.33-15.62Q123.55-15.62 123.69-15.48 123.84-15.33 123.84-15.11L123.84-15.11 123.84-11.44 126.57-11.44Q126.79-11.44 126.93-11.3 127.07-11.15 127.07-10.93L127.07-10.93 127.07-10.23Q127.07-10.01 126.93-9.88 126.79-9.75 126.57-9.75L126.57-9.75 123.84-9.75 123.84-4Q123.84-2.88 124.2-2.31 124.56-1.74 125.44-1.74L125.44-1.74 126.79-1.74Q127.01-1.74 127.14-1.59 127.27-1.45 127.27-1.23L127.27-1.23 127.27-0.51Q127.27-0.29 127.14-0.14 127.01 0 126.79 0L126.79 0 125.29 0ZM129.95 0Q129.73 0 129.59-0.14 129.45-0.29 129.45-0.51L129.45-0.51 129.45-15.11Q129.45-15.36 129.59-15.49 129.73-15.62 129.95-15.62L129.95-15.62 130.97-15.62Q131.21-15.62 131.34-15.49 131.47-15.36 131.47-15.11L131.47-15.11 131.47-9.99Q132.11-10.8 132.98-11.23 133.85-11.66 135.12-11.66L135.12-11.66Q137.24-11.66 138.41-10.31 139.59-8.95 139.59-6.73L139.59-6.73 139.59-0.51Q139.59-0.29 139.45-0.14 139.3 0 139.08 0L139.08 0 138.05 0Q137.83 0 137.69-0.14 137.54-0.29 137.54-0.51L137.54-0.51 137.54-6.6Q137.54-8.18 136.77-9.06 136-9.94 134.55-9.94L134.55-9.94Q133.14-9.94 132.31-9.05 131.47-8.16 131.47-6.6L131.47-6.6 131.47-0.51Q131.47-0.29 131.33-0.14 131.19 0 130.97 0L130.97 0 129.95 0Z" transform="translate(-1.4700000286102295, 15.770000457763672)"></path></g> <!----> <!----> <!----> <!----> <!----> <!----> <!----></g></g> <!----></g></g><defs v-gra="od"></defs></svg>